<mxfile host="app.diagrams.net" modified="2020-10-18T17:21:52.899Z" agent="5.0 (Windows NT 10.0; Win64; x64) AppleWebKit/537.36 (KHTML, like Gecko) Chrome/86.0.4240.75 Safari/537.36" etag="UacIruEJPrtjeITenviF" version="13.8.0" type="github">
  <diagram id="kgpKYQtTHZ0yAKxKKP6v" name="Page-1">
    <mxGraphModel dx="942" dy="614" grid="1" gridSize="10" guides="1" tooltips="1" connect="1" arrows="1" fold="1" page="1" pageScale="1" pageWidth="1100" pageHeight="850" background="none" math="0" shadow="0">
      <root>
        <mxCell id="0" />
        <mxCell id="1" parent="0" />
        <mxCell id="-lLIzcseRj1SreiCDqfF-3" value="" style="rounded=0;whiteSpace=wrap;html=1;" parent="1" vertex="1">
          <mxGeometry x="110" y="50" width="420" height="500" as="geometry" />
        </mxCell>
        <mxCell id="-lLIzcseRj1SreiCDqfF-4" value="" style="rounded=1;whiteSpace=wrap;html=1;" parent="1" vertex="1">
          <mxGeometry x="180" y="250" width="140" height="130" as="geometry" />
        </mxCell>
        <mxCell id="-lLIzcseRj1SreiCDqfF-5" value="ATMega&lt;br&gt;2560" style="text;html=1;strokeColor=none;fillColor=none;align=center;verticalAlign=middle;whiteSpace=wrap;rounded=0;" parent="1" vertex="1">
          <mxGeometry x="230" y="305" width="40" height="20" as="geometry" />
        </mxCell>
        <mxCell id="-lLIzcseRj1SreiCDqfF-6" value="Debug&lt;br&gt;LED" style="ellipse;whiteSpace=wrap;html=1;aspect=fixed;" parent="1" vertex="1">
          <mxGeometry x="135" y="100" width="50" height="50" as="geometry" />
        </mxCell>
        <mxCell id="-lLIzcseRj1SreiCDqfF-9" style="edgeStyle=orthogonalEdgeStyle;rounded=0;orthogonalLoop=1;jettySize=auto;html=1;exitX=0.25;exitY=1;exitDx=0;exitDy=0;entryX=0;entryY=1;entryDx=0;entryDy=0;" parent="1" source="-lLIzcseRj1SreiCDqfF-7" target="-lLIzcseRj1SreiCDqfF-8" edge="1">
          <mxGeometry relative="1" as="geometry" />
        </mxCell>
        <mxCell id="-lLIzcseRj1SreiCDqfF-12" style="edgeStyle=orthogonalEdgeStyle;rounded=0;orthogonalLoop=1;jettySize=auto;html=1;exitX=0.25;exitY=1;exitDx=0;exitDy=0;entryX=0.25;entryY=1;entryDx=0;entryDy=0;" parent="1" source="-lLIzcseRj1SreiCDqfF-7" target="-lLIzcseRj1SreiCDqfF-8" edge="1">
          <mxGeometry relative="1" as="geometry" />
        </mxCell>
        <mxCell id="-lLIzcseRj1SreiCDqfF-16" style="edgeStyle=orthogonalEdgeStyle;rounded=0;orthogonalLoop=1;jettySize=auto;html=1;exitX=0.25;exitY=1;exitDx=0;exitDy=0;entryX=0.25;entryY=1;entryDx=0;entryDy=0;" parent="1" source="-lLIzcseRj1SreiCDqfF-7" target="-lLIzcseRj1SreiCDqfF-8" edge="1">
          <mxGeometry relative="1" as="geometry" />
        </mxCell>
        <mxCell id="-lLIzcseRj1SreiCDqfF-7" value="" style="rounded=1;whiteSpace=wrap;html=1;" parent="1" vertex="1">
          <mxGeometry x="120" y="460" width="60" height="40" as="geometry" />
        </mxCell>
        <mxCell id="-lLIzcseRj1SreiCDqfF-8" value="USB 2 Serial" style="text;html=1;strokeColor=none;fillColor=none;align=center;verticalAlign=middle;whiteSpace=wrap;rounded=0;" parent="1" vertex="1">
          <mxGeometry x="130" y="470" width="40" height="20" as="geometry" />
        </mxCell>
        <mxCell id="-lLIzcseRj1SreiCDqfF-14" value="Temperature (X3)" style="rounded=1;whiteSpace=wrap;html=1;" parent="1" vertex="1">
          <mxGeometry x="175" y="175" width="80" height="30" as="geometry" />
        </mxCell>
        <mxCell id="-lLIzcseRj1SreiCDqfF-17" value="" style="rounded=1;whiteSpace=wrap;html=1;" parent="1" vertex="1">
          <mxGeometry x="190" y="460" width="50" height="40" as="geometry" />
        </mxCell>
        <mxCell id="-lLIzcseRj1SreiCDqfF-18" value="Opto-coupler" style="text;html=1;strokeColor=none;fillColor=none;align=center;verticalAlign=middle;whiteSpace=wrap;rounded=0;" parent="1" vertex="1">
          <mxGeometry x="190" y="470" width="50" height="20" as="geometry" />
        </mxCell>
        <mxCell id="-lLIzcseRj1SreiCDqfF-23" value="" style="rounded=1;whiteSpace=wrap;html=1;" parent="1" vertex="1">
          <mxGeometry x="425" y="450" width="65" height="50" as="geometry" />
        </mxCell>
        <mxCell id="-lLIzcseRj1SreiCDqfF-25" value="Presure&lt;br&gt;Sensor" style="text;html=1;strokeColor=none;fillColor=none;align=center;verticalAlign=middle;whiteSpace=wrap;rounded=0;" parent="1" vertex="1">
          <mxGeometry x="437.5" y="465" width="40" height="20" as="geometry" />
        </mxCell>
        <mxCell id="-lLIzcseRj1SreiCDqfF-32" value="" style="rounded=1;whiteSpace=wrap;html=1;" parent="1" vertex="1">
          <mxGeometry x="425" y="390" width="65" height="50" as="geometry" />
        </mxCell>
        <mxCell id="-lLIzcseRj1SreiCDqfF-33" value="RTC" style="text;html=1;strokeColor=none;fillColor=none;align=center;verticalAlign=middle;whiteSpace=wrap;rounded=0;" parent="1" vertex="1">
          <mxGeometry x="437.5" y="405" width="40" height="20" as="geometry" />
        </mxCell>
        <mxCell id="-lLIzcseRj1SreiCDqfF-34" value="" style="rounded=1;whiteSpace=wrap;html=1;" parent="1" vertex="1">
          <mxGeometry x="425" y="320" width="65" height="50" as="geometry" />
        </mxCell>
        <mxCell id="-lLIzcseRj1SreiCDqfF-35" value="IMU" style="text;html=1;strokeColor=none;fillColor=none;align=center;verticalAlign=middle;whiteSpace=wrap;rounded=0;" parent="1" vertex="1">
          <mxGeometry x="437.5" y="335" width="40" height="20" as="geometry" />
        </mxCell>
        <mxCell id="-lLIzcseRj1SreiCDqfF-39" value="Interface" style="text;html=1;strokeColor=none;fillColor=none;align=center;verticalAlign=middle;whiteSpace=wrap;rounded=0;" parent="1" vertex="1">
          <mxGeometry x="442.5" y="200" width="40" height="20" as="geometry" />
        </mxCell>
        <mxCell id="-lLIzcseRj1SreiCDqfF-61" value="" style="endArrow=none;html=1;edgeStyle=elbowEdgeStyle;endFill=0;" parent="1" edge="1">
          <mxGeometry relative="1" as="geometry">
            <mxPoint x="360" y="315" as="sourcePoint" />
            <mxPoint x="424" y="199" as="targetPoint" />
            <Array as="points">
              <mxPoint x="390" y="260" />
            </Array>
          </mxGeometry>
        </mxCell>
        <mxCell id="-lLIzcseRj1SreiCDqfF-62" value="I2C" style="edgeLabel;resizable=0;html=1;align=center;verticalAlign=middle;" parent="-lLIzcseRj1SreiCDqfF-61" connectable="0" vertex="1">
          <mxGeometry relative="1" as="geometry">
            <mxPoint y="-34.71" as="offset" />
          </mxGeometry>
        </mxCell>
        <mxCell id="-lLIzcseRj1SreiCDqfF-65" value="" style="endArrow=none;html=1;entryX=0;entryY=0.5;entryDx=0;entryDy=0;endFill=0;" parent="1" target="-lLIzcseRj1SreiCDqfF-32" edge="1">
          <mxGeometry relative="1" as="geometry">
            <mxPoint x="390" y="340" as="sourcePoint" />
            <mxPoint x="550" y="330" as="targetPoint" />
            <Array as="points">
              <mxPoint x="390" y="320" />
              <mxPoint x="390" y="415" />
            </Array>
          </mxGeometry>
        </mxCell>
        <mxCell id="-lLIzcseRj1SreiCDqfF-66" value="I2C" style="edgeLabel;resizable=0;html=1;align=center;verticalAlign=middle;" parent="-lLIzcseRj1SreiCDqfF-65" connectable="0" vertex="1">
          <mxGeometry relative="1" as="geometry">
            <mxPoint y="-2.4299999999999997" as="offset" />
          </mxGeometry>
        </mxCell>
        <mxCell id="-lLIzcseRj1SreiCDqfF-67" value="" style="endArrow=none;html=1;entryX=0;entryY=0.5;entryDx=0;entryDy=0;endFill=0;" parent="1" target="-lLIzcseRj1SreiCDqfF-23" edge="1">
          <mxGeometry relative="1" as="geometry">
            <mxPoint x="390" y="400" as="sourcePoint" />
            <mxPoint x="550" y="330" as="targetPoint" />
            <Array as="points">
              <mxPoint x="390" y="475" />
            </Array>
          </mxGeometry>
        </mxCell>
        <mxCell id="-lLIzcseRj1SreiCDqfF-68" value="I2C" style="edgeLabel;resizable=0;html=1;align=center;verticalAlign=middle;" parent="-lLIzcseRj1SreiCDqfF-67" connectable="0" vertex="1">
          <mxGeometry relative="1" as="geometry">
            <mxPoint y="-5" as="offset" />
          </mxGeometry>
        </mxCell>
        <mxCell id="-lLIzcseRj1SreiCDqfF-70" value="" style="endArrow=classic;html=1;exitX=0.5;exitY=1;exitDx=0;exitDy=0;entryX=0.25;entryY=0;entryDx=0;entryDy=0;" parent="1" source="-lLIzcseRj1SreiCDqfF-14" target="-lLIzcseRj1SreiCDqfF-4" edge="1">
          <mxGeometry relative="1" as="geometry">
            <mxPoint x="450" y="330" as="sourcePoint" />
            <mxPoint x="550" y="330" as="targetPoint" />
          </mxGeometry>
        </mxCell>
        <mxCell id="-lLIzcseRj1SreiCDqfF-71" value="Analog" style="edgeLabel;resizable=0;html=1;align=center;verticalAlign=middle;" parent="-lLIzcseRj1SreiCDqfF-70" connectable="0" vertex="1">
          <mxGeometry relative="1" as="geometry" />
        </mxCell>
        <mxCell id="-lLIzcseRj1SreiCDqfF-78" value="" style="endArrow=classic;html=1;entryX=1.005;entryY=0.818;entryDx=0;entryDy=0;entryPerimeter=0;" parent="1" target="-lLIzcseRj1SreiCDqfF-4" edge="1">
          <mxGeometry relative="1" as="geometry">
            <mxPoint x="425" y="356" as="sourcePoint" />
            <mxPoint x="550" y="330" as="targetPoint" />
            <Array as="points" />
          </mxGeometry>
        </mxCell>
        <mxCell id="-lLIzcseRj1SreiCDqfF-79" value="Dig.&lt;br&gt;Int." style="edgeLabel;resizable=0;html=1;align=center;verticalAlign=middle;" parent="-lLIzcseRj1SreiCDqfF-78" connectable="0" vertex="1">
          <mxGeometry relative="1" as="geometry">
            <mxPoint x="-13.569999999999999" y="-0.9099999999999997" as="offset" />
          </mxGeometry>
        </mxCell>
        <mxCell id="-lLIzcseRj1SreiCDqfF-80" value="" style="endArrow=none;html=1;exitX=1;exitY=0.5;exitDx=0;exitDy=0;endFill=0;" parent="1" source="-lLIzcseRj1SreiCDqfF-4" edge="1">
          <mxGeometry relative="1" as="geometry">
            <mxPoint x="450" y="330" as="sourcePoint" />
            <mxPoint x="425" y="333" as="targetPoint" />
            <Array as="points">
              <mxPoint x="390" y="315" />
              <mxPoint x="390" y="333" />
            </Array>
          </mxGeometry>
        </mxCell>
        <mxCell id="-lLIzcseRj1SreiCDqfF-81" value="I2C" style="edgeLabel;resizable=0;html=1;align=center;verticalAlign=middle;" parent="-lLIzcseRj1SreiCDqfF-80" connectable="0" vertex="1">
          <mxGeometry relative="1" as="geometry">
            <mxPoint x="-32" as="offset" />
          </mxGeometry>
        </mxCell>
        <mxCell id="-lLIzcseRj1SreiCDqfF-84" value="" style="endArrow=none;html=1;exitX=0;exitY=0.75;exitDx=0;exitDy=0;entryX=0.5;entryY=0;entryDx=0;entryDy=0;endFill=0;" parent="1" source="-lLIzcseRj1SreiCDqfF-4" target="-lLIzcseRj1SreiCDqfF-7" edge="1">
          <mxGeometry relative="1" as="geometry">
            <mxPoint x="620" y="330" as="sourcePoint" />
            <mxPoint x="720" y="330" as="targetPoint" />
            <Array as="points">
              <mxPoint x="150" y="348" />
            </Array>
          </mxGeometry>
        </mxCell>
        <mxCell id="-lLIzcseRj1SreiCDqfF-85" value="Serial" style="edgeLabel;resizable=0;html=1;align=center;verticalAlign=middle;" parent="-lLIzcseRj1SreiCDqfF-84" connectable="0" vertex="1">
          <mxGeometry relative="1" as="geometry">
            <mxPoint y="26" as="offset" />
          </mxGeometry>
        </mxCell>
        <mxCell id="-lLIzcseRj1SreiCDqfF-86" value="" style="endArrow=classic;html=1;exitX=0;exitY=0.5;exitDx=0;exitDy=0;entryX=0.5;entryY=1;entryDx=0;entryDy=0;" parent="1" source="-lLIzcseRj1SreiCDqfF-4" target="-lLIzcseRj1SreiCDqfF-6" edge="1">
          <mxGeometry relative="1" as="geometry">
            <mxPoint x="450" y="320" as="sourcePoint" />
            <mxPoint x="550" y="320" as="targetPoint" />
            <Array as="points">
              <mxPoint x="160" y="315" />
            </Array>
          </mxGeometry>
        </mxCell>
        <mxCell id="-lLIzcseRj1SreiCDqfF-87" value="Dig." style="edgeLabel;resizable=0;html=1;align=center;verticalAlign=middle;" parent="-lLIzcseRj1SreiCDqfF-86" connectable="0" vertex="1">
          <mxGeometry relative="1" as="geometry">
            <mxPoint x="11" as="offset" />
          </mxGeometry>
        </mxCell>
        <mxCell id="-lLIzcseRj1SreiCDqfF-88" value="CONTROL BLOCK" style="text;html=1;strokeColor=none;fillColor=none;align=center;verticalAlign=middle;whiteSpace=wrap;rounded=0;" parent="1" vertex="1">
          <mxGeometry x="260" y="60" width="120" height="20" as="geometry" />
        </mxCell>
        <mxCell id="-lLIzcseRj1SreiCDqfF-90" value="CAMERA" style="text;html=1;strokeColor=none;fillColor=none;align=center;verticalAlign=middle;whiteSpace=wrap;rounded=0;" parent="1" vertex="1">
          <mxGeometry x="930" y="185" width="40" height="20" as="geometry" />
        </mxCell>
        <mxCell id="-lLIzcseRj1SreiCDqfF-91" value="" style="endArrow=none;html=1;exitX=1;exitY=0.25;exitDx=0;exitDy=0;endFill=0;" parent="1" source="-lLIzcseRj1SreiCDqfF-113" edge="1">
          <mxGeometry relative="1" as="geometry">
            <mxPoint x="505" y="200" as="sourcePoint" />
            <mxPoint x="920" y="160" as="targetPoint" />
            <Array as="points">
              <mxPoint x="581" y="185" />
              <mxPoint x="581" y="160" />
            </Array>
          </mxGeometry>
        </mxCell>
        <mxCell id="-lLIzcseRj1SreiCDqfF-92" value="I2C" style="edgeLabel;resizable=0;html=1;align=center;verticalAlign=middle;" parent="-lLIzcseRj1SreiCDqfF-91" connectable="0" vertex="1">
          <mxGeometry relative="1" as="geometry">
            <mxPoint x="-154.86" y="25" as="offset" />
          </mxGeometry>
        </mxCell>
        <mxCell id="-lLIzcseRj1SreiCDqfF-93" value="" style="endArrow=classic;html=1;edgeStyle=orthogonalEdgeStyle;entryX=0;entryY=0.421;entryDx=0;entryDy=0;entryPerimeter=0;" parent="1" source="-lLIzcseRj1SreiCDqfF-4" target="-lLIzcseRj1SreiCDqfF-104" edge="1">
          <mxGeometry relative="1" as="geometry">
            <mxPoint x="440" y="210" as="sourcePoint" />
            <mxPoint x="820" y="139" as="targetPoint" />
            <Array as="points">
              <mxPoint x="300" y="140" />
              <mxPoint x="700" y="140" />
              <mxPoint x="700" y="139" />
            </Array>
          </mxGeometry>
        </mxCell>
        <mxCell id="-lLIzcseRj1SreiCDqfF-94" value="Dig. (Power: ON/OFF)" style="edgeLabel;resizable=0;html=1;align=center;verticalAlign=middle;" parent="-lLIzcseRj1SreiCDqfF-93" connectable="0" vertex="1">
          <mxGeometry relative="1" as="geometry">
            <mxPoint x="101.31" as="offset" />
          </mxGeometry>
        </mxCell>
        <mxCell id="-lLIzcseRj1SreiCDqfF-98" value="" style="endArrow=classic;html=1;edgeStyle=orthogonalEdgeStyle;rounded=1;exitX=0.003;exitY=0.13;exitDx=0;exitDy=0;exitPerimeter=0;entryX=0.661;entryY=-0.015;entryDx=0;entryDy=0;entryPerimeter=0;" parent="1" source="-lLIzcseRj1SreiCDqfF-104" target="-lLIzcseRj1SreiCDqfF-4" edge="1">
          <mxGeometry relative="1" as="geometry">
            <mxPoint x="900" y="140.0285714285714" as="sourcePoint" />
            <mxPoint x="540" y="260" as="targetPoint" />
            <Array as="points" />
          </mxGeometry>
        </mxCell>
        <mxCell id="-lLIzcseRj1SreiCDqfF-99" value="Dig. (Power Status)" style="edgeLabel;resizable=0;html=1;align=center;verticalAlign=middle;" parent="-lLIzcseRj1SreiCDqfF-98" connectable="0" vertex="1">
          <mxGeometry relative="1" as="geometry">
            <mxPoint x="118.42999999999999" as="offset" />
          </mxGeometry>
        </mxCell>
        <mxCell id="-lLIzcseRj1SreiCDqfF-102" value="" style="endArrow=classic;html=1;exitX=0.75;exitY=0;exitDx=0;exitDy=0;edgeStyle=orthogonalEdgeStyle;" parent="1" source="-lLIzcseRj1SreiCDqfF-4" edge="1">
          <mxGeometry relative="1" as="geometry">
            <mxPoint x="440" y="260" as="sourcePoint" />
            <mxPoint x="900" y="121" as="targetPoint" />
            <Array as="points">
              <mxPoint x="290" y="120" />
              <mxPoint x="880" y="120" />
            </Array>
          </mxGeometry>
        </mxCell>
        <mxCell id="-lLIzcseRj1SreiCDqfF-103" value="Dig. (Shutter)" style="edgeLabel;resizable=0;html=1;align=center;verticalAlign=middle;" parent="-lLIzcseRj1SreiCDqfF-102" connectable="0" vertex="1">
          <mxGeometry relative="1" as="geometry">
            <mxPoint x="94.36999999999999" as="offset" />
          </mxGeometry>
        </mxCell>
        <mxCell id="-lLIzcseRj1SreiCDqfF-104" value="" style="rounded=1;whiteSpace=wrap;html=1;" parent="1" vertex="1">
          <mxGeometry x="900" y="80" width="100" height="140" as="geometry" />
        </mxCell>
        <mxCell id="-lLIzcseRj1SreiCDqfF-106" value="" style="rounded=1;whiteSpace=wrap;html=1;" parent="1" vertex="1">
          <mxGeometry x="910" y="90" width="100" height="140" as="geometry" />
        </mxCell>
        <mxCell id="-lLIzcseRj1SreiCDqfF-107" value="CAMERA" style="rounded=1;whiteSpace=wrap;html=1;" parent="1" vertex="1">
          <mxGeometry x="920" y="100" width="100" height="140" as="geometry" />
        </mxCell>
        <mxCell id="-lLIzcseRj1SreiCDqfF-108" value="" style="rounded=1;whiteSpace=wrap;html=1;" parent="1" vertex="1">
          <mxGeometry x="425" y="150" width="65" height="60" as="geometry" />
        </mxCell>
        <mxCell id="-lLIzcseRj1SreiCDqfF-112" value="" style="rounded=1;whiteSpace=wrap;html=1;" parent="1" vertex="1">
          <mxGeometry x="437.5" y="160" width="65" height="60" as="geometry" />
        </mxCell>
        <mxCell id="-lLIzcseRj1SreiCDqfF-113" value="Interface" style="rounded=1;whiteSpace=wrap;html=1;" parent="1" vertex="1">
          <mxGeometry x="450" y="170" width="65" height="60" as="geometry" />
        </mxCell>
        <mxCell id="-lLIzcseRj1SreiCDqfF-117" value="" style="rounded=1;whiteSpace=wrap;html=1;" parent="1" vertex="1">
          <mxGeometry x="650" y="230" width="110" height="90" as="geometry" />
        </mxCell>
        <mxCell id="-lLIzcseRj1SreiCDqfF-119" value="Stepdown&lt;br&gt;5Vdc CAMERA" style="text;html=1;strokeColor=none;fillColor=none;align=center;verticalAlign=middle;whiteSpace=wrap;rounded=0;" parent="1" vertex="1">
          <mxGeometry x="685" y="265" width="40" height="20" as="geometry" />
        </mxCell>
        <mxCell id="-lLIzcseRj1SreiCDqfF-122" value="" style="endArrow=classic;html=1;exitX=1;exitY=0.25;exitDx=0;exitDy=0;entryX=0;entryY=0.583;entryDx=0;entryDy=0;entryPerimeter=0;" parent="1" source="-lLIzcseRj1SreiCDqfF-4" target="-lLIzcseRj1SreiCDqfF-117" edge="1">
          <mxGeometry relative="1" as="geometry">
            <mxPoint x="480" y="250" as="sourcePoint" />
            <mxPoint x="580" y="250" as="targetPoint" />
          </mxGeometry>
        </mxCell>
        <mxCell id="-lLIzcseRj1SreiCDqfF-123" value="Dig. Enable&lt;br&gt;(X3)" style="edgeLabel;resizable=0;html=1;align=center;verticalAlign=middle;" parent="-lLIzcseRj1SreiCDqfF-122" connectable="0" vertex="1">
          <mxGeometry relative="1" as="geometry">
            <mxPoint x="107" as="offset" />
          </mxGeometry>
        </mxCell>
        <mxCell id="-lLIzcseRj1SreiCDqfF-128" value="" style="rounded=1;whiteSpace=wrap;html=1;" parent="1" vertex="1">
          <mxGeometry x="660" y="240" width="110" height="90" as="geometry" />
        </mxCell>
        <mxCell id="-lLIzcseRj1SreiCDqfF-130" style="edgeStyle=orthogonalEdgeStyle;rounded=1;orthogonalLoop=1;jettySize=auto;html=1;exitX=1;exitY=0.5;exitDx=0;exitDy=0;entryX=0.25;entryY=1;entryDx=0;entryDy=0;endArrow=classic;endFill=1;" parent="1" source="-lLIzcseRj1SreiCDqfF-129" target="-lLIzcseRj1SreiCDqfF-107" edge="1">
          <mxGeometry relative="1" as="geometry" />
        </mxCell>
        <mxCell id="-lLIzcseRj1SreiCDqfF-129" value="" style="rounded=1;whiteSpace=wrap;html=1;" parent="1" vertex="1">
          <mxGeometry x="670" y="250" width="110" height="90" as="geometry" />
        </mxCell>
        <mxCell id="-lLIzcseRj1SreiCDqfF-131" value="Stepdown 5Vdc&lt;br&gt;Camera" style="text;html=1;strokeColor=none;fillColor=none;align=center;verticalAlign=middle;whiteSpace=wrap;rounded=0;" parent="1" vertex="1">
          <mxGeometry x="705" y="282.5" width="40" height="20" as="geometry" />
        </mxCell>
        <mxCell id="-lLIzcseRj1SreiCDqfF-138" style="edgeStyle=orthogonalEdgeStyle;rounded=1;orthogonalLoop=1;jettySize=auto;html=1;exitX=0;exitY=0.5;exitDx=0;exitDy=0;endArrow=classic;endFill=1;" parent="1" source="-lLIzcseRj1SreiCDqfF-132" edge="1">
          <mxGeometry relative="1" as="geometry">
            <mxPoint x="530" y="374" as="targetPoint" />
            <Array as="points">
              <mxPoint x="584" y="374" />
            </Array>
          </mxGeometry>
        </mxCell>
        <mxCell id="-lLIzcseRj1SreiCDqfF-132" value="" style="rounded=1;whiteSpace=wrap;html=1;" parent="1" vertex="1">
          <mxGeometry x="584" y="355" width="80" height="35" as="geometry" />
        </mxCell>
        <mxCell id="-lLIzcseRj1SreiCDqfF-134" value="Stepdown&lt;br&gt;5Vdc" style="text;html=1;strokeColor=none;fillColor=none;align=center;verticalAlign=middle;whiteSpace=wrap;rounded=0;" parent="1" vertex="1">
          <mxGeometry x="604" y="362.5" width="40" height="20" as="geometry" />
        </mxCell>
        <mxCell id="-lLIzcseRj1SreiCDqfF-139" style="rounded=1;orthogonalLoop=1;jettySize=auto;html=1;endArrow=classic;endFill=1;" parent="1" edge="1">
          <mxGeometry relative="1" as="geometry">
            <mxPoint x="584" y="423" as="sourcePoint" />
            <mxPoint x="531" y="421" as="targetPoint" />
          </mxGeometry>
        </mxCell>
        <mxCell id="-lLIzcseRj1SreiCDqfF-136" value="" style="rounded=1;whiteSpace=wrap;html=1;" parent="1" vertex="1">
          <mxGeometry x="584" y="405" width="80" height="35" as="geometry" />
        </mxCell>
        <mxCell id="-lLIzcseRj1SreiCDqfF-137" value="Stepdown&lt;br&gt;3.3Vdc" style="text;html=1;strokeColor=none;fillColor=none;align=center;verticalAlign=middle;whiteSpace=wrap;rounded=0;" parent="1" vertex="1">
          <mxGeometry x="604" y="412.5" width="40" height="20" as="geometry" />
        </mxCell>
        <mxCell id="-lLIzcseRj1SreiCDqfF-140" value="" style="rounded=0;whiteSpace=wrap;html=1;fillColor=none;" parent="1" vertex="1">
          <mxGeometry x="550" y="200" width="270" height="260" as="geometry" />
        </mxCell>
        <mxCell id="-lLIzcseRj1SreiCDqfF-142" value="POWER BLOCK" style="text;html=1;strokeColor=none;fillColor=none;align=center;verticalAlign=middle;whiteSpace=wrap;rounded=0;" parent="1" vertex="1">
          <mxGeometry x="632" y="200" width="100" height="20" as="geometry" />
        </mxCell>
        <mxCell id="-lLIzcseRj1SreiCDqfF-145" style="edgeStyle=none;rounded=1;orthogonalLoop=1;jettySize=auto;html=1;exitX=0.5;exitY=0;exitDx=0;exitDy=0;endArrow=classic;endFill=1;" parent="1" source="-lLIzcseRj1SreiCDqfF-144" target="-lLIzcseRj1SreiCDqfF-140" edge="1">
          <mxGeometry relative="1" as="geometry" />
        </mxCell>
        <mxCell id="-lLIzcseRj1SreiCDqfF-144" value="Batteries (N)" style="rounded=1;whiteSpace=wrap;html=1;fillColor=none;" parent="1" vertex="1">
          <mxGeometry x="625" y="570" width="120" height="50" as="geometry" />
        </mxCell>
        <mxCell id="-lLIzcseRj1SreiCDqfF-146" value="" style="endArrow=classic;html=1;exitX=0;exitY=0.5;exitDx=0;exitDy=0;edgeStyle=orthogonalEdgeStyle;" parent="1" source="-lLIzcseRj1SreiCDqfF-144" edge="1">
          <mxGeometry relative="1" as="geometry">
            <mxPoint x="600" y="540" as="sourcePoint" />
            <mxPoint x="300" y="380" as="targetPoint" />
          </mxGeometry>
        </mxCell>
        <mxCell id="-lLIzcseRj1SreiCDqfF-147" value="Analog. (N)" style="edgeLabel;resizable=0;html=1;align=center;verticalAlign=middle;" parent="-lLIzcseRj1SreiCDqfF-146" connectable="0" vertex="1">
          <mxGeometry relative="1" as="geometry">
            <mxPoint x="55" as="offset" />
          </mxGeometry>
        </mxCell>
        <mxCell id="-lLIzcseRj1SreiCDqfF-148" value="" style="endArrow=classic;html=1;exitX=0.5;exitY=0;exitDx=0;exitDy=0;entryX=0.25;entryY=1;entryDx=0;entryDy=0;" parent="1" source="-lLIzcseRj1SreiCDqfF-17" target="-lLIzcseRj1SreiCDqfF-4" edge="1">
          <mxGeometry relative="1" as="geometry">
            <mxPoint x="180" y="430" as="sourcePoint" />
            <mxPoint x="280" y="430" as="targetPoint" />
          </mxGeometry>
        </mxCell>
        <mxCell id="-lLIzcseRj1SreiCDqfF-149" value="Dig." style="edgeLabel;resizable=0;html=1;align=center;verticalAlign=middle;" parent="-lLIzcseRj1SreiCDqfF-148" connectable="0" vertex="1">
          <mxGeometry relative="1" as="geometry" />
        </mxCell>
        <mxCell id="-lLIzcseRj1SreiCDqfF-159" value="" style="endArrow=classic;html=1;startArrow=classic;startFill=1;entryX=1;entryY=0.5;entryDx=0;entryDy=0;edgeStyle=orthogonalEdgeStyle;exitX=0.75;exitY=1;exitDx=0;exitDy=0;" parent="1" source="-lLIzcseRj1SreiCDqfF-107" target="-lLIzcseRj1SreiCDqfF-163" edge="1">
          <mxGeometry relative="1" as="geometry">
            <mxPoint x="1000" y="270" as="sourcePoint" />
            <mxPoint x="991" y="600" as="targetPoint" />
          </mxGeometry>
        </mxCell>
        <mxCell id="-lLIzcseRj1SreiCDqfF-160" value="9 wires bidirectional bus&lt;br&gt;(X3)" style="edgeLabel;resizable=0;html=1;align=center;verticalAlign=middle;" parent="-lLIzcseRj1SreiCDqfF-159" connectable="0" vertex="1">
          <mxGeometry relative="1" as="geometry">
            <mxPoint x="-0.05000000000000071" y="0.24" as="offset" />
          </mxGeometry>
        </mxCell>
        <mxCell id="-lLIzcseRj1SreiCDqfF-161" value="" style="rounded=1;whiteSpace=wrap;html=1;fillColor=none;" parent="1" vertex="1">
          <mxGeometry x="880" y="670" width="80" height="80" as="geometry" />
        </mxCell>
        <mxCell id="-lLIzcseRj1SreiCDqfF-162" value="" style="rounded=1;whiteSpace=wrap;html=1;" parent="1" vertex="1">
          <mxGeometry x="890" y="680" width="80" height="80" as="geometry" />
        </mxCell>
        <mxCell id="-lLIzcseRj1SreiCDqfF-163" value="" style="rounded=1;whiteSpace=wrap;html=1;" parent="1" vertex="1">
          <mxGeometry x="900" y="690" width="80" height="80" as="geometry" />
        </mxCell>
        <mxCell id="-lLIzcseRj1SreiCDqfF-164" value="Pictures &amp;amp; Video&lt;br&gt;&lt;br&gt;SD CARD" style="text;html=1;strokeColor=none;fillColor=none;align=center;verticalAlign=middle;whiteSpace=wrap;rounded=0;" parent="1" vertex="1">
          <mxGeometry x="905" y="705" width="70" height="50" as="geometry" />
        </mxCell>
        <mxCell id="-lLIzcseRj1SreiCDqfF-165" value="" style="rounded=1;whiteSpace=wrap;html=1;fillColor=none;" parent="1" vertex="1">
          <mxGeometry x="780" y="750" width="80" height="80" as="geometry" />
        </mxCell>
        <mxCell id="-lLIzcseRj1SreiCDqfF-166" value="Data $ Logs&lt;br&gt;SD CARD" style="text;html=1;strokeColor=none;fillColor=none;align=center;verticalAlign=middle;whiteSpace=wrap;rounded=0;" parent="1" vertex="1">
          <mxGeometry x="785" y="776.25" width="70" height="27.5" as="geometry" />
        </mxCell>
        <mxCell id="-lLIzcseRj1SreiCDqfF-170" value="" style="endArrow=classic;html=1;exitX=0.75;exitY=1;exitDx=0;exitDy=0;edgeStyle=orthogonalEdgeStyle;startArrow=classic;startFill=1;" parent="1" source="-lLIzcseRj1SreiCDqfF-4" target="-lLIzcseRj1SreiCDqfF-165" edge="1">
          <mxGeometry relative="1" as="geometry">
            <mxPoint x="600" y="620" as="sourcePoint" />
            <mxPoint x="700" y="620" as="targetPoint" />
            <Array as="points">
              <mxPoint x="285" y="640" />
              <mxPoint x="820" y="640" />
            </Array>
          </mxGeometry>
        </mxCell>
        <mxCell id="-lLIzcseRj1SreiCDqfF-171" value="9 Wires bidirectional bus" style="edgeLabel;resizable=0;html=1;align=center;verticalAlign=middle;" parent="-lLIzcseRj1SreiCDqfF-170" connectable="0" vertex="1">
          <mxGeometry relative="1" as="geometry">
            <mxPoint x="-40.1" as="offset" />
          </mxGeometry>
        </mxCell>
        <mxCell id="-lLIzcseRj1SreiCDqfF-174" value="" style="rounded=0;whiteSpace=wrap;html=1;fillColor=none;" parent="1" vertex="1">
          <mxGeometry x="100" y="720" width="610" height="120" as="geometry" />
        </mxCell>
        <mxCell id="-lLIzcseRj1SreiCDqfF-176" value="MAIN PCB&lt;br&gt;--&amp;nbsp; IRIS 2 CPU BOARD&amp;nbsp; --" style="text;html=1;strokeColor=none;fillColor=none;align=center;verticalAlign=middle;whiteSpace=wrap;rounded=0;" parent="1" vertex="1">
          <mxGeometry x="377.5" y="10" width="160" height="20" as="geometry" />
        </mxCell>
        <mxCell id="-lLIzcseRj1SreiCDqfF-183" value="" style="rounded=1;whiteSpace=wrap;html=1;fillColor=none;" parent="1" vertex="1">
          <mxGeometry x="110" y="750" width="80" height="80" as="geometry" />
        </mxCell>
        <mxCell id="-lLIzcseRj1SreiCDqfF-184" value="" style="rounded=1;whiteSpace=wrap;html=1;fillColor=none;" parent="1" vertex="1">
          <mxGeometry x="210" y="750" width="80" height="80" as="geometry" />
        </mxCell>
        <mxCell id="-lLIzcseRj1SreiCDqfF-185" value="" style="rounded=1;whiteSpace=wrap;html=1;fillColor=none;" parent="1" vertex="1">
          <mxGeometry x="310" y="750" width="80" height="80" as="geometry" />
        </mxCell>
        <mxCell id="-lLIzcseRj1SreiCDqfF-186" value="" style="rounded=1;whiteSpace=wrap;html=1;fillColor=none;" parent="1" vertex="1">
          <mxGeometry x="410" y="750" width="80" height="80" as="geometry" />
        </mxCell>
        <mxCell id="-lLIzcseRj1SreiCDqfF-193" style="edgeStyle=orthogonalEdgeStyle;rounded=1;orthogonalLoop=1;jettySize=auto;html=1;entryX=0.5;entryY=1;entryDx=0;entryDy=0;startArrow=none;startFill=0;endArrow=classic;endFill=1;exitX=0.5;exitY=0;exitDx=0;exitDy=0;" parent="1" source="-lLIzcseRj1SreiCDqfF-187" target="-lLIzcseRj1SreiCDqfF-144" edge="1">
          <mxGeometry relative="1" as="geometry">
            <mxPoint x="550" y="710" as="sourcePoint" />
            <Array as="points">
              <mxPoint x="550" y="685" />
              <mxPoint x="685" y="685" />
            </Array>
          </mxGeometry>
        </mxCell>
        <mxCell id="-lLIzcseRj1SreiCDqfF-187" value="" style="rounded=1;whiteSpace=wrap;html=1;fillColor=none;" parent="1" vertex="1">
          <mxGeometry x="510" y="750" width="80" height="80" as="geometry" />
        </mxCell>
        <mxCell id="-lLIzcseRj1SreiCDqfF-188" value="" style="rounded=1;whiteSpace=wrap;html=1;fillColor=none;" parent="1" vertex="1">
          <mxGeometry x="610" y="750" width="80" height="80" as="geometry" />
        </mxCell>
        <mxCell id="-lLIzcseRj1SreiCDqfF-189" value="Main&lt;br&gt;SWITCH" style="text;html=1;strokeColor=none;fillColor=none;align=center;verticalAlign=middle;whiteSpace=wrap;rounded=0;" parent="1" vertex="1">
          <mxGeometry x="630" y="780" width="40" height="20" as="geometry" />
        </mxCell>
        <mxCell id="-lLIzcseRj1SreiCDqfF-190" value="Battery&lt;br&gt;Charger" style="text;html=1;strokeColor=none;fillColor=none;align=center;verticalAlign=middle;whiteSpace=wrap;rounded=0;" parent="1" vertex="1">
          <mxGeometry x="530" y="780" width="40" height="20" as="geometry" />
        </mxCell>
        <mxCell id="-lLIzcseRj1SreiCDqfF-196" value="" style="endArrow=classic;html=1;exitX=0.5;exitY=0;exitDx=0;exitDy=0;entryX=0.649;entryY=1.003;entryDx=0;entryDy=0;entryPerimeter=0;edgeStyle=orthogonalEdgeStyle;startArrow=classic;startFill=1;" parent="1" source="-lLIzcseRj1SreiCDqfF-186" target="-lLIzcseRj1SreiCDqfF-4" edge="1">
          <mxGeometry relative="1" as="geometry">
            <mxPoint x="260" y="460" as="sourcePoint" />
            <mxPoint x="360" y="460" as="targetPoint" />
            <Array as="points">
              <mxPoint x="450" y="660" />
              <mxPoint x="271" y="660" />
            </Array>
          </mxGeometry>
        </mxCell>
        <mxCell id="-lLIzcseRj1SreiCDqfF-197" value="6 Wires" style="edgeLabel;resizable=0;html=1;align=center;verticalAlign=middle;" parent="-lLIzcseRj1SreiCDqfF-196" connectable="0" vertex="1">
          <mxGeometry relative="1" as="geometry">
            <mxPoint x="129.08" y="5.319999999999999" as="offset" />
          </mxGeometry>
        </mxCell>
        <mxCell id="-lLIzcseRj1SreiCDqfF-198" value="ICSP" style="text;html=1;strokeColor=none;fillColor=none;align=center;verticalAlign=middle;whiteSpace=wrap;rounded=0;" parent="1" vertex="1">
          <mxGeometry x="430" y="780" width="40" height="20" as="geometry" />
        </mxCell>
        <mxCell id="-lLIzcseRj1SreiCDqfF-199" value="" style="endArrow=classic;html=1;exitX=0.564;exitY=0.997;exitDx=0;exitDy=0;entryX=0.5;entryY=0;entryDx=0;entryDy=0;edgeStyle=orthogonalEdgeStyle;exitPerimeter=0;startArrow=none;startFill=0;" parent="1" source="-lLIzcseRj1SreiCDqfF-4" target="-lLIzcseRj1SreiCDqfF-185" edge="1">
          <mxGeometry relative="1" as="geometry">
            <mxPoint x="270" y="630" as="sourcePoint" />
            <mxPoint x="370" y="630" as="targetPoint" />
            <Array as="points">
              <mxPoint x="259" y="680" />
              <mxPoint x="350" y="680" />
            </Array>
          </mxGeometry>
        </mxCell>
        <mxCell id="-lLIzcseRj1SreiCDqfF-200" value="3 Dig." style="edgeLabel;resizable=0;html=1;align=center;verticalAlign=middle;" parent="-lLIzcseRj1SreiCDqfF-199" connectable="0" vertex="1">
          <mxGeometry relative="1" as="geometry">
            <mxPoint x="41.010000000000005" y="69.72" as="offset" />
          </mxGeometry>
        </mxCell>
        <mxCell id="-lLIzcseRj1SreiCDqfF-201" value="RGB LED" style="text;html=1;strokeColor=none;fillColor=none;align=center;verticalAlign=middle;whiteSpace=wrap;rounded=0;" parent="1" vertex="1">
          <mxGeometry x="330" y="780" width="40" height="20" as="geometry" />
        </mxCell>
        <mxCell id="-lLIzcseRj1SreiCDqfF-202" value="" style="endArrow=classic;html=1;exitX=0.5;exitY=0;exitDx=0;exitDy=0;entryX=0.5;entryY=1;entryDx=0;entryDy=0;edgeStyle=orthogonalEdgeStyle;" parent="1" source="-lLIzcseRj1SreiCDqfF-184" target="-lLIzcseRj1SreiCDqfF-17" edge="1">
          <mxGeometry relative="1" as="geometry">
            <mxPoint x="360" y="620" as="sourcePoint" />
            <mxPoint x="460" y="620" as="targetPoint" />
            <Array as="points">
              <mxPoint x="250" y="700" />
              <mxPoint x="215" y="700" />
            </Array>
          </mxGeometry>
        </mxCell>
        <mxCell id="-lLIzcseRj1SreiCDqfF-203" value="2 Wires" style="edgeLabel;resizable=0;html=1;align=center;verticalAlign=middle;" parent="-lLIzcseRj1SreiCDqfF-202" connectable="0" vertex="1">
          <mxGeometry relative="1" as="geometry">
            <mxPoint y="-2.5" as="offset" />
          </mxGeometry>
        </mxCell>
        <mxCell id="-lLIzcseRj1SreiCDqfF-204" value="24 Vdc&lt;br&gt;&lt;br&gt;From SunRise" style="text;html=1;strokeColor=none;fillColor=none;align=center;verticalAlign=middle;whiteSpace=wrap;rounded=0;" parent="1" vertex="1">
          <mxGeometry x="210" y="760" width="80" height="60" as="geometry" />
        </mxCell>
        <mxCell id="-lLIzcseRj1SreiCDqfF-205" style="edgeStyle=orthogonalEdgeStyle;rounded=1;orthogonalLoop=1;jettySize=auto;html=1;exitX=0.5;exitY=1;exitDx=0;exitDy=0;startArrow=none;startFill=0;endArrow=classic;endFill=1;" parent="1" source="-lLIzcseRj1SreiCDqfF-204" target="-lLIzcseRj1SreiCDqfF-204" edge="1">
          <mxGeometry relative="1" as="geometry" />
        </mxCell>
        <mxCell id="-lLIzcseRj1SreiCDqfF-210" value="" style="endArrow=classic;html=1;exitX=0.5;exitY=0;exitDx=0;exitDy=0;entryX=0.5;entryY=1;entryDx=0;entryDy=0;" parent="1" source="-lLIzcseRj1SreiCDqfF-183" target="-lLIzcseRj1SreiCDqfF-7" edge="1">
          <mxGeometry relative="1" as="geometry">
            <mxPoint x="340" y="630" as="sourcePoint" />
            <mxPoint x="440" y="630" as="targetPoint" />
          </mxGeometry>
        </mxCell>
        <mxCell id="-lLIzcseRj1SreiCDqfF-211" value="4 Wires" style="edgeLabel;resizable=0;html=1;align=center;verticalAlign=middle;" parent="-lLIzcseRj1SreiCDqfF-210" connectable="0" vertex="1">
          <mxGeometry relative="1" as="geometry">
            <mxPoint y="15" as="offset" />
          </mxGeometry>
        </mxCell>
        <mxCell id="-lLIzcseRj1SreiCDqfF-214" value="USB&lt;br&gt;Debug" style="text;html=1;strokeColor=none;fillColor=none;align=center;verticalAlign=middle;whiteSpace=wrap;rounded=0;" parent="1" vertex="1">
          <mxGeometry x="130" y="780" width="40" height="20" as="geometry" />
        </mxCell>
        <mxCell id="-lLIzcseRj1SreiCDqfF-215" value="" style="rounded=0;whiteSpace=wrap;html=1;fillColor=none;" parent="1" vertex="1">
          <mxGeometry x="80" y="5" width="760" height="555" as="geometry" />
        </mxCell>
        <mxCell id="-lLIzcseRj1SreiCDqfF-216" value="" style="rounded=0;whiteSpace=wrap;html=1;fillColor=none;" parent="1" vertex="1">
          <mxGeometry x="770" y="600" width="240" height="240" as="geometry" />
        </mxCell>
        <mxCell id="-lLIzcseRj1SreiCDqfF-217" value="REMOBABLE&lt;br&gt;DATA STORAGE" style="text;html=1;strokeColor=none;fillColor=none;align=center;verticalAlign=middle;whiteSpace=wrap;rounded=0;" parent="1" vertex="1">
          <mxGeometry x="837.5" y="600" width="105" height="50" as="geometry" />
        </mxCell>
      </root>
    </mxGraphModel>
  </diagram>
</mxfile>
